<?xml version="1.0" encoding="UTF-8" standalone="no"?>
<!-- Created with Inkscape (http://www.inkscape.org/) -->

<svg
   width="354.84091mm"
   height="225.38196mm"
   viewBox="0 0 354.84091 225.38196"
   version="1.1"
   id="svg5"
   xml:space="preserve"
   inkscape:version="1.2.1 (9c6d41e, 2022-07-14)"
   sodipodi:docname="quizzler.svg"
   inkscape:export-filename="quizzler.png"
   inkscape:export-xdpi="92"
   inkscape:export-ydpi="92"
   xmlns:inkscape="http://www.inkscape.org/namespaces/inkscape"
   xmlns:sodipodi="http://sodipodi.sourceforge.net/DTD/sodipodi-0.dtd"
   xmlns="http://www.w3.org/2000/svg"
   xmlns:svg="http://www.w3.org/2000/svg"><sodipodi:namedview
     id="namedview7"
     pagecolor="#ffffff"
     bordercolor="#000000"
     borderopacity="0.25"
     inkscape:showpageshadow="2"
     inkscape:pageopacity="0.0"
     inkscape:pagecheckerboard="0"
     inkscape:deskcolor="#d1d1d1"
     inkscape:document-units="mm"
     showgrid="false"
     inkscape:zoom="0.84274158"
     inkscape:cx="344.70828"
     inkscape:cy="316.2298"
     inkscape:window-width="1440"
     inkscape:window-height="847"
     inkscape:window-x="0"
     inkscape:window-y="25"
     inkscape:window-maximized="1"
     inkscape:current-layer="g11374" /><defs
     id="defs2"><linearGradient
       id="linearGradient9302"
       inkscape:swatch="solid"><stop
         style="stop-color:#9f9f9f;stop-opacity:0.64161849;"
         offset="0"
         id="stop9300" /></linearGradient><linearGradient
       id="linearGradient7292"
       inkscape:swatch="gradient"><stop
         style="stop-color:#000000;stop-opacity:0.849711;"
         offset="0"
         id="stop7288" /><stop
         style="stop-color:#000000;stop-opacity:0;"
         offset="1"
         id="stop7290" /></linearGradient><filter
       style="color-interpolation-filters:sRGB"
       inkscape:label="Drop Shadow"
       id="filter10989"
       x="-0.013202365"
       y="0"
       width="1.0132024"
       height="1.0670365"><feFlood
         flood-opacity="0.498039"
         flood-color="rgb(0,0,0)"
         result="flood"
         id="feFlood10979" /><feComposite
         in="flood"
         in2="SourceGraphic"
         operator="in"
         result="composite1"
         id="feComposite10981" /><feGaussianBlur
         in="composite1"
         stdDeviation="0"
         result="blur"
         id="feGaussianBlur10983" /><feOffset
         dx="-1.2"
         dy="1.3"
         result="offset"
         id="feOffset10985" /><feComposite
         in="SourceGraphic"
         in2="offset"
         operator="over"
         result="composite2"
         id="feComposite10987" /></filter></defs><g
     inkscape:groupmode="layer"
     id="layer4"
     inkscape:label="Layer 4"
     transform="translate(-34.897179,-46.620898)"><g
       id="g11374"
       inkscape:export-filename="../g11374.png"
       inkscape:export-xdpi="96"
       inkscape:export-ydpi="96"><path
         id="path3358"
         style="display:inline;opacity:1;fill:#c78cff;fill-opacity:1;stroke:none;stroke-width:3.1841;stroke-dasharray:none;stroke-opacity:1;paint-order:markers fill stroke"
         d="m 293.39787,46.620993 c -0.87284,-0.0016 -1.74779,0.01681 -2.6261,0.05759 L 83.532337,56.264828 C 75.928169,56.616539 63.677076,57.697984 60.012652,71.396142 L 35.44977,163.21405 c -2.253319,8.42323 2.101097,31.78492 18.320146,32.97759 l 40.694614,2.99302 c 2.219709,11.89862 7.53322,32.77254 17.42832,31.48191 13.77889,-1.79725 146.21727,5.99098 146.21727,5.99098 v 35.34534 c 0,0 51.08075,-21.94732 56.2735,-35.34534 5.19272,-13.39799 0,-14.97663 0,-14.97663 23.74703,-2.90751 32.99225,-2.89981 46.47979,-2.90751 10.24148,0.75311 28.04673,-18.50629 28.75541,-33.10591 2.71334,-55.89747 -41.23129,-138.944769 -96.22106,-139.046507 z"
         sodipodi:nodetypes="sccccccscczccsss"
         inkscape:export-filename="../path3358.png"
         inkscape:export-xdpi="128"
         inkscape:export-ydpi="128" /><path
         style="display:inline;opacity:1;fill:#713fa0;fill-opacity:1;stroke:none;stroke-width:3.1841;stroke-dasharray:none;stroke-opacity:1;paint-order:markers fill stroke"
         d="m 94.464525,199.18466 266.398885,19.58875 -249.52576,11.94273 c -0.13477,0.17807 -10.63204,2.69276 -16.873125,-31.53148"
         id="path3416"
         sodipodi:nodetypes="cccc" /><path
         style="display:inline;opacity:1;fill:#713fa0;fill-opacity:1;stroke:none;stroke-width:3.1841;stroke-dasharray:none;stroke-opacity:1;paint-order:markers fill stroke"
         d="m 314.38362,236.65755 h -56.2735 v 10.6185 l 56.2735,-10.6185"
         id="path4607" /><g
         aria-label="Quizzler"
         transform="matrix(3.163262,0.36358719,-0.36358719,3.163262,-76.218547,-101.82419)"
         id="text4664"
         style="font-size:20.0483px;line-height:2.3;font-family:Arial;-inkscape-font-specification:Arial;text-align:center;letter-spacing:0px;text-anchor:middle;opacity:1;fill:#f3f3f3;stroke-opacity:0.849711;paint-order:markers fill stroke;filter:url(#filter10989)"><path
           d="m 63.273395,64.757931 q 0.548195,-0.665666 0.812504,-1.566273 0.264309,-0.910397 0.264309,-2.134048 0,-1.311754 -0.303466,-2.23194 -0.303465,-0.920185 -0.792926,-1.487959 -0.49925,-0.587353 -1.155127,-0.851661 -0.646087,-0.264309 -1.35091,-0.264309 -0.714613,0 -1.350911,0.254519 -0.62651,0.25452 -1.155127,0.841872 -0.48946,0.548196 -0.802715,1.517328 -0.303465,0.959342 -0.303465,2.231939 0,1.301965 0.293676,2.222151 0.303465,0.910396 0.792926,1.487959 0.48946,0.577564 1.145337,0.851662 0.655877,0.274097 1.380279,0.274097 0.724401,0 1.380278,-0.274097 0.655877,-0.283887 1.145338,-0.87124 z m 0.401357,3.416434 q 0.03916,0.969132 0.528617,1.390068 0.489461,0.420936 1.673955,0.420936 0.401358,0 0.949553,-0.137049 0.548196,-0.137049 0.763559,-0.244731 h 0.37199 v 2.584352 q -0.548196,0.127259 -1.194284,0.225151 -0.636298,0.09789 -1.957842,0.09789 -1.164916,0 -2.036155,-0.293676 -0.86145,-0.283887 -1.439014,-0.812504 -0.567774,-0.518828 -0.851661,-1.223651 -0.283887,-0.704823 -0.332833,-1.566274 -3.269596,-0.185995 -5.100178,-2.182993 -1.820793,-2.006788 -1.820793,-5.364487 0,-3.514326 1.996999,-5.550481 1.996998,-2.045945 5.511324,-2.045945 3.504537,0 5.511325,2.045945 2.006788,2.036155 2.006788,5.550481 0,2.594141 -1.174705,4.483458 -1.174705,1.879528 -3.406645,2.623508 z"
           style="font-weight:bold;font-family:'Apple Color Emoji';-inkscape-font-specification:'Apple Color Emoji'"
           id="path1377" /><path
           d="m 81.882681,68.350571 h -3.524116 v -1.213862 q -0.97892,0.74398 -1.791425,1.135548 -0.812504,0.381779 -1.938263,0.381779 -1.820793,0 -2.809503,-1.047445 -0.978921,-1.047446 -0.978921,-3.09339 v -7.155912 h 3.543694 v 5.452589 q 0,0.832083 0.04895,1.390068 0.05873,0.548196 0.254519,0.910397 0.185995,0.3622 0.557985,0.528617 0.381779,0.166416 1.057235,0.166416 0.450303,0 0.998499,-0.166416 0.548196,-0.166417 1.057234,-0.489461 v -7.79221 h 3.524116 z"
           style="font-weight:bold;font-family:'Apple Color Emoji';-inkscape-font-specification:'Apple Color Emoji'"
           id="path1379" /><path
           d="M 88.735126,68.350571 H 85.211011 V 57.357289 h 3.524115 z m 0.09789,-12.559555 h -3.7199 v -2.672454 h 3.7199 z"
           style="font-weight:bold;font-family:'Apple Color Emoji';-inkscape-font-specification:'Apple Color Emoji'"
           id="path1381" /><path
           d="M 101.5492,68.350571 H 91.221585 v -2.261308 l 5.795212,-6.157412 h -5.560271 v -2.574562 h 9.984994 v 2.222151 l -5.70711,6.147623 h 5.81479 z"
           style="font-weight:bold;font-family:'Apple Color Emoji';-inkscape-font-specification:'Apple Color Emoji'"
           id="path1383" /><path
           d="M 113.51161,68.350571 H 103.184 v -2.261308 l 5.79521,-6.157412 h -5.56027 v -2.574562 h 9.98499 v 2.222151 l -5.70711,6.147623 h 5.81479 z"
           style="font-weight:bold;font-family:'Apple Color Emoji';-inkscape-font-specification:'Apple Color Emoji'"
           id="path1385" /><path
           d="m 119.5124,68.350571 h -3.52412 V 53.118562 h 3.52412 z"
           style="font-weight:bold;font-family:'Apple Color Emoji';-inkscape-font-specification:'Apple Color Emoji'"
           id="path1387" /><path
           d="m 133.66759,63.504912 h -8.0663 q 0.0783,1.292176 0.97892,1.97742 0.91039,0.685245 2.67245,0.685245 1.11597,0 2.16342,-0.401357 1.04744,-0.401358 1.65437,-0.861451 h 0.39157 v 2.829082 q -1.19428,0.479671 -2.25152,0.695033 -1.05723,0.215363 -2.33962,0.215363 -3.30875,0 -5.07081,-1.48796 -1.76206,-1.48796 -1.76206,-4.238727 0,-2.7214 1.66417,-4.307252 1.67395,-1.595641 4.58135,-1.595641 2.68224,0 4.03315,1.3607 1.35091,1.350911 1.35091,3.896105 z m -3.50453,-2.065523 q -0.0294,-1.10618 -0.5482,-1.664165 -0.51883,-0.557985 -1.61522,-0.557985 -1.01808,0 -1.67395,0.528617 -0.65588,0.528617 -0.73419,1.693533 z"
           style="font-weight:bold;font-family:'Apple Color Emoji';-inkscape-font-specification:'Apple Color Emoji'"
           id="path1389" /><path
           d="m 144.12247,60.714988 h -0.31326 q -0.22515,-0.07831 -0.7244,-0.117471 -0.49925,-0.03916 -0.83208,-0.03916 -0.75377,0 -1.33133,0.09789 -0.57757,0.09789 -1.24323,0.332834 v 7.361485 h -3.52412 V 57.357289 h 3.52412 v 1.61522 q 1.16491,-0.9985 2.02636,-1.321544 0.86145,-0.332833 1.58586,-0.332833 0.18599,0 0.42093,0.0098 0.23494,0.0098 0.41115,0.02937 z"
           style="font-weight:bold;font-family:'Apple Color Emoji';-inkscape-font-specification:'Apple Color Emoji'"
           id="path1391" /></g></g></g></svg>
